<?xml version="1.0" encoding="iso-8859-1"?>
<!-- Generator: Adobe Illustrator 19.0.0, SVG Export Plug-In . SVG Version: 6.00 Build 0)  -->
<svg version="1.1" id="Layer_1" xmlns="http://www.w3.org/2000/svg" xmlns:xlink="http://www.w3.org/1999/xlink" x="0px" y="0px"
	 viewBox="0 0 512 512" style="enable-background:new 0 0 512 512;" xml:space="preserve">
<g transform="translate(1 1)">
	<path style="fill:#E2E3E5;" d="M263.533,41.667c-5.12,0-8.533-3.413-8.533-8.533v-25.6C255,2.413,258.413-1,263.533-1
		c5.12,0,8.533,3.413,8.533,8.533v25.6C272.067,38.253,268.653,41.667,263.533,41.667z"/>
	<path style="fill:#CCCCCC;" d="M50.2,237.933c0-113.493,91.307-204.8,204.8-204.8s204.8,91.307,204.8,204.8
		c-28.16-34.133-74.24-34.133-102.4,0c-28.16-34.133-74.24-34.133-102.4,0c-28.16-34.133-74.24-34.133-102.4,0
		C124.44,203.8,78.36,203.8,50.2,237.933"/>
	<path style="fill:#E2E3E5;" d="M50.2,237.933c0-113.493,84.48-204.8,187.733-204.8c93.867,0,171.52,75.093,185.173,172.373
		c1.707,9.387-9.387,17.067-17.067,11.947c-16.213-11.093-29.867-4.267-48.64,20.48c-25.6-34.133-76.8-34.133-102.4,0
		c-25.6-34.133-76.8-34.133-102.4,0C127,203.8,75.8,203.8,50.2,237.933"/>
	<path style="fill:#FFFFFF;" d="M255,33.133c3.413,0,7.68,0,11.093,0c-90.453,3.413-165.547,76.8-179.2,172.373
		c-0.853,3.413,0,5.973,1.707,8.533c-14.507,2.56-27.307,11.093-38.4,23.893C50.2,124.44,141.507,33.133,255,33.133"/>
	<path style="fill:#E2E3E5;" d="M229.4,511c-23.893,0-42.667-18.773-42.667-42.667c0-5.12,3.413-8.533,8.533-8.533
		c5.12,0,8.533,3.413,8.533,8.533c0,14.507,11.093,25.6,25.6,25.6c14.507,0,25.6-11.093,25.6-25.6v-230.4
		c0-5.12,3.413-8.533,8.533-8.533c5.12,0,8.533,3.413,8.533,8.533v230.4C272.067,492.227,253.293,511,229.4,511z"/>
	<g>
		<path style="fill:#B6B6B6;" d="M50.2,246.467c-0.853,0-1.707,0-2.56-0.853c-3.413-0.853-5.973-4.267-5.973-7.68
			C41.667,120.173,137.24,24.6,255,24.6s213.333,95.573,213.333,213.333c0,3.413-2.56,6.827-5.973,7.68
			c-3.413,0.853-6.827,0-9.387-2.56c-11.947-14.507-27.307-22.187-44.373-22.187c-17.067,0-32.427,7.68-44.373,22.187
			c-3.413,4.267-10.24,4.267-12.8,0c-12.8-14.507-28.16-22.187-45.227-22.187c-17.067,0-32.427,7.68-44.373,22.187
			c-1.707,2.56-4.267,3.413-6.827,3.413l0,0c-2.56,0-5.12-0.853-6.827-3.413c-11.947-14.507-27.307-22.187-44.373-22.187
			s-32.427,7.68-44.373,22.187c-3.413,4.267-10.24,4.267-12.8,0c-12.8-14.507-28.16-22.187-45.227-22.187
			s-32.427,7.68-44.373,22.187C55.32,245.613,52.76,246.467,50.2,246.467z M306.2,203.8c18.773,0,36.693,7.68,51.2,21.333
			c14.507-13.653,32.427-21.333,51.2-21.333c14.507,0,29.013,5.12,41.813,13.653C440.173,118.467,356.547,41.667,255,41.667
			s-185.173,76.8-195.413,175.787c12.8-8.533,27.307-13.653,41.813-13.653c18.773,0,36.693,7.68,51.2,21.333
			c14.507-13.653,32.427-21.333,51.2-21.333s36.693,7.68,51.2,21.333C269.507,211.48,287.427,203.8,306.2,203.8z"/>
		<path style="fill:#B6B6B6;" d="M255,41.667c-5.12,0-8.533-3.413-8.533-8.533v-25.6C246.467,2.413,249.88-1,255-1
			s8.533,3.413,8.533,8.533v25.6C263.533,38.253,260.12,41.667,255,41.667z"/>
		<path style="fill:#B6B6B6;" d="M220.867,511c-23.893,0-42.667-18.773-42.667-42.667c0-5.12,3.413-8.533,8.533-8.533
			c5.12,0,8.533,3.413,8.533,8.533c0,14.507,11.093,25.6,25.6,25.6c14.507,0,25.6-11.093,25.6-25.6v-230.4
			c0-5.12,3.413-8.533,8.533-8.533s8.533,3.413,8.533,8.533v230.4C263.533,492.227,244.76,511,220.867,511z"/>
	</g>
</g>
<g>
</g>
<g>
</g>
<g>
</g>
<g>
</g>
<g>
</g>
<g>
</g>
<g>
</g>
<g>
</g>
<g>
</g>
<g>
</g>
<g>
</g>
<g>
</g>
<g>
</g>
<g>
</g>
<g>
</g>
</svg>
